<svg id="e40kpM3Iq9Y1" xmlns="http://www.w3.org/2000/svg" xmlns:xlink="http://www.w3.org/1999/xlink" viewBox="0 0 1920 2160" shape-rendering="geometricPrecision" text-rendering="geometricPrecision"><path d="M176.788,-11.9106c-2.821,25.5509,7.657,53.1115,16.596,76.4607c7.602,19.8555,15.324,40.0419,24.31,59.3169c14.343,30.768,33.882,57.744,54.451,84.576c23.343,30.451,49.13,59.175,73.878,88.493c24.912,29.513,47.055,60.333,67.921,92.794c17.976,27.966,35.427,57.044,47.514,88.104c11.679,30.008,24.54,61.111,27.785,93.419c5.092,50.692-11.032,101.434-47.219,137.327-21.675,21.501-50.538,34.982-79.246,44.182-37.559,12.038-76.731,18.058-116.129,19.542-83.898,3.159-167.681-3.281-251.55407-4.402-33.85133-.452-68.21973-1.582-101.96593-4.375-16.702-1.382-33.435-2.206-50.199-1.469" transform="matrix(-1.687729-.982789 0.705593-1.211704 1913.521429 2249.75942)" fill="none" stroke="#ee7916" stroke-linecap="round"/><path d="M171.851,5.39901C169.03,30.9499,179.507,58.5106,188.447,81.8597c7.602,19.8553,15.324,40.0423,24.31,59.3173c14.343,30.767,33.882,57.743,54.451,84.575c23.343,30.452,49.13,59.175,73.878,88.493c24.912,29.513,47.055,60.334,67.92,92.795c17.976,27.966,35.427,57.044,47.515,88.104c11.678,30.007,24.539,61.111,27.785,93.418c5.092,50.693-11.032,101.434-47.219,137.328-21.676,21.5-50.538,34.981-79.246,44.182-37.56,12.037-76.731,18.058-116.129,19.541-83.898,3.159-167.6812-3.28-251.55433-4.401-33.85137-.453-68.21967-1.582-101.96567-4.375-16.702-1.382-33.435-2.206-50.199-1.47" transform="matrix(-1.687729-.982789 0.705593-1.211704 1888.038752 2283.190592)" fill="none" stroke="#ee7916" stroke-linecap="round"/><path d="M166.914,22.7086c-2.821,25.551,7.656,53.1116,16.596,76.4607c7.602,19.8557,15.324,40.0427,24.309,59.3177c14.344,30.767,33.883,57.743,54.452,84.575c23.343,30.451,49.129,59.175,73.877,88.493c24.913,29.513,47.056,60.334,67.921,92.795c17.976,27.965,35.427,57.043,47.515,88.103c11.678,30.008,24.539,61.112,27.784,93.419c5.092,50.692-11.031,101.434-47.218,137.328-21.676,21.5-50.538,34.981-79.246,44.181-37.56,12.038-76.731,18.059-116.13,19.542-83.897,3.159-167.6806-3.28-251.5536-4.401-33.8514-.453-68.2198-1.582-101.9654-4.375-16.703-1.383-33.436-2.206-50.199-1.47" transform="matrix(-1.687729-.982789 0.705593-1.211704 1862.554557 2316.622213)" fill="none" stroke="#ee7916" stroke-linecap="round"/><path d="M161.976,40.0183c-2.82,25.5509,7.657,53.1115,16.596,76.4607c7.602,19.856,15.324,40.042,24.31,59.317c14.344,30.768,33.882,57.744,54.451,84.576c23.343,30.451,49.13,59.175,73.878,88.493c24.913,29.513,47.055,60.333,67.921,92.794c17.976,27.966,35.427,57.044,47.515,88.104c11.678,30.008,24.539,61.111,27.784,93.418c5.092,50.693-11.032,101.435-47.218,137.328-21.676,21.501-50.539,34.981-79.246,44.182-37.56,12.038-76.732,18.058-116.13,19.542-83.897,3.159-167.6808-3.281-251.5539-4.402-33.8514-.452-68.2197-1.582-101.9661-4.375-16.702-1.382-33.435-2.206-50.199-1.469" transform="matrix(-1.687729-.982789 0.705593-1.211704 1837.070161 2350.053882)" fill="none" stroke="#ee7916" stroke-linecap="round"/><path d="M161.976,40.0183c-2.82,25.5509,7.657,53.1115,16.596,76.4607c7.602,19.856,15.324,40.042,24.31,59.317c14.344,30.768,33.882,57.744,54.451,84.576c23.343,30.451,49.13,59.175,73.878,88.493c24.913,29.513,47.055,60.333,67.921,92.794c17.976,27.966,35.427,57.044,47.515,88.104c11.678,30.008,24.539,61.111,27.784,93.418c5.092,50.693-11.032,101.435-47.218,137.328-21.676,21.501-50.539,34.981-79.246,44.182-37.56,12.038-76.732,18.058-116.13,19.542-83.897,3.159-167.6808-3.281-251.5539-4.402-33.8514-.452-68.2197-1.582-101.9661-4.375-16.702-1.382-33.435-2.206-50.199-1.469" transform="matrix(2.057991 0.740563 0.525925-1.46152-661.900227 1163.278414)" fill="none" stroke="#ee7916" stroke-linecap="round"/><path d="M176.788,-11.9106c-2.821,25.5509,7.657,53.1115,16.596,76.4607c7.602,19.8555,15.324,40.0419,24.31,59.3169c14.343,30.768,33.882,57.744,54.451,84.576c23.343,30.451,49.13,59.175,73.878,88.493c24.912,29.513,47.055,60.333,67.921,92.794c17.976,27.966,35.427,57.044,47.514,88.104c11.679,30.008,24.54,61.111,27.785,93.419c5.092,50.692-11.032,101.434-47.219,137.327-21.675,21.501-50.538,34.982-79.246,44.182-37.559,12.038-76.731,18.058-116.129,19.542-83.898,3.159-167.681-3.281-251.55407-4.402-33.85133-.452-68.21973-1.582-101.96593-4.375-16.702-1.382-33.435-2.206-50.199-1.469" transform="matrix(2.057991 0.740563 0.525925-1.46152-650.260422 1024.485026)" fill="none" stroke="#ee7916" stroke-linecap="round"/><path d="M171.851,5.39901C169.03,30.9499,179.507,58.5106,188.447,81.8597c7.602,19.8553,15.324,40.0423,24.31,59.3173c14.343,30.767,33.882,57.743,54.451,84.575c23.343,30.452,49.13,59.175,73.878,88.493c24.912,29.513,47.055,60.334,67.92,92.795c17.976,27.966,35.427,57.044,47.515,88.104c11.678,30.007,24.539,61.111,27.785,93.418c5.092,50.693-11.032,101.434-47.219,137.328-21.676,21.5-50.538,34.981-79.246,44.182-37.56,12.037-76.731,18.058-116.129,19.541-83.898,3.159-167.6812-3.28-251.55433-4.401-33.85137-.453-68.21967-1.582-101.96567-4.375-16.702-1.382-33.435-2.206-50.199-1.47" transform="matrix(2.057991 0.740563 0.525925-1.46152-654.14055 1070.74854)" fill="none" stroke="#ee7916" stroke-linecap="round"/><path d="M166.914,22.7086c-2.821,25.551,7.656,53.1116,16.596,76.4607c7.602,19.8557,15.324,40.0427,24.309,59.3177c14.344,30.767,33.883,57.743,54.452,84.575c23.343,30.451,49.129,59.175,73.877,88.493c24.913,29.513,47.056,60.334,67.921,92.795c17.976,27.965,35.427,57.043,47.515,88.103c11.678,30.008,24.539,61.112,27.784,93.419c5.092,50.692-11.031,101.434-47.218,137.328-21.676,21.5-50.538,34.981-79.246,44.181-37.56,12.038-76.731,18.059-116.13,19.542-83.897,3.159-167.6806-3.28-251.5536-4.401-33.8514-.453-68.2198-1.582-101.9654-4.375-16.703-1.383-33.436-2.206-50.199-1.47" transform="matrix(2.05799 0.740563 0.525925-1.46152-658.020261 1117.013444)" fill-opacity="0" fill="none" stroke="#ee7916" stroke-linecap="round"/></svg>
