<?xml version="1.0" standalone="no"?>
<!DOCTYPE svg PUBLIC "-//W3C//DTD SVG 20010904//EN"
 "http://www.w3.org/TR/2001/REC-SVG-20010904/DTD/svg10.dtd">
<svg version="1.0" xmlns="http://www.w3.org/2000/svg"
 width="500.000000pt" height="500.000000pt" viewBox="0 0 500.000000 500.000000"
 preserveAspectRatio="xMidYMid meet">

<g transform="translate(0.000000,500.000000) scale(0.100000,-0.100000)"
fill="#000000" stroke="none">
<path d="M430 2501 l0 -2492 1408 4 c1541 3 1444 0 1727 63 469 105 827 324
1031 632 99 148 176 338 209 512 24 125 24 350 1 479 -36 197 -120 406 -232
579 -61 94 -196 239 -260 279 -24 16 -44 31 -44 35 0 4 23 29 51 55 111 104
227 293 278 452 85 265 89 582 10 886 -29 110 -114 284 -186 380 -222 297
-607 500 -1103 581 -106 17 -643 27 -2077 39 l-813 7 0 -2491z m2810 1533
c278 -65 437 -285 417 -574 -16 -211 -114 -374 -276 -453 l-66 -32 -187 -3
-188 -4 0 -384 0 -384 173 0 c189 0 247 -10 352 -59 229 -108 350 -325 332
-599 -18 -278 -212 -475 -554 -563 -65 -16 -111 -19 -310 -19 l-233 0 0 350 0
350 -150 0 -150 0 0 -350 0 -350 -552 2 -553 3 -3 1524 c-1 839 1 1528 5 1532
5 4 254 11 556 15 l547 7 0 -411 0 -412 150 0 150 0 0 409 c0 318 3 410 13
414 6 3 113 6 237 6 169 1 241 -3 290 -15z"/>
<path d="M2400 2445 l0 -415 150 0 150 0 0 415 0 415 -150 0 -150 0 0 -415z"/>
</g>
</svg>
